<svg width="50" height="50" viewBox="0 0 50 50" fill="none" xmlns="http://www.w3.org/2000/svg">
<path d="M19.4444 8.33333V13.8889H5.55556V44.4444H36.1111V30.5556H41.6667V47.2222C41.6667 47.9589 41.374 48.6655 40.8531 49.1864C40.3321 49.7073 39.6256 50 38.8889 50H2.77778C2.04107 50 1.33453 49.7073 0.813592 49.1864C0.292658 48.6655 0 47.9589 0 47.2222V11.1111C0 10.3744 0.292658 9.66786 0.813592 9.14693C1.33453 8.62599 2.04107 8.33333 2.77778 8.33333H19.4444ZM50 0V22.2222H44.4444V9.48056L22.7972 31.1306L18.8694 27.2028L40.5139 5.55556H27.7778V0H50Z" fill="black"/>
</svg>
