<svg width="73" height="66" viewBox="0 0 73 66" fill="none" xmlns="http://www.w3.org/2000/svg">
<path d="M36.2608 5.54816C40.4026 1.84051 45.8072 -0.139937 51.3639 0.0137803C56.9207 0.167498 62.2075 2.44371 66.138 6.37466C70.0652 10.3012 72.3416 15.5812 72.5006 21.1324C72.6597 26.6835 70.6894 32.0852 66.9935 36.2302L38.3766 64.8876C37.2046 66.0613 35.3026 66.0611 34.1307 64.8873L5.52079 36.2302C1.82059 32.083 -0.151604 26.6767 0.0091034 21.1211C0.169811 15.5655 2.45122 10.2822 6.38497 6.35592C10.3187 2.4296 15.6063 0.158169 21.1622 0.00795342C26.718 -0.142262 32.1206 1.84014 36.2608 5.54816Z" fill="black"/>
</svg>
