<svg width="73" height="66" viewBox="0 0 73 66" fill="none" xmlns="http://www.w3.org/2000/svg">
<path d="M35.5936 6.29307L36.2606 6.89045L36.9278 6.29324C40.8791 2.75612 46.0351 0.86675 51.3363 1.0134C56.6375 1.16005 61.6812 3.33157 65.4309 7.08173L65.431 7.08182C69.1775 10.8278 71.3493 15.8651 71.5011 21.161C71.6525 26.4476 69.7796 31.5921 66.2657 35.5438L37.669 64.181C36.8877 64.9634 35.6197 64.9634 34.8384 64.1808L6.2485 35.5437C2.73033 31.5899 0.855634 26.4409 1.00869 21.15C1.162 15.8499 3.33852 10.8095 7.0914 7.06369C10.8443 3.31789 15.8888 1.1509 21.1892 1.00759C26.4896 0.864279 31.6438 2.75553 35.5936 6.29307Z" fill="#FFB26B" stroke="black" stroke-width="2"/>
</svg>
