<svg width="47" height="45" viewBox="0 0 47 45" fill="none" xmlns="http://www.w3.org/2000/svg">
<path d="M20.6468 2.78115C21.5449 0.0172215 25.4551 0.0172221 26.3532 2.78115L29.6741 13.002C30.0758 14.2381 31.2276 15.075 32.5273 15.075H43.2742C46.1803 15.075 47.3887 18.7938 45.0375 20.502L36.3431 26.8189C35.2917 27.5828 34.8517 28.9369 35.2533 30.173L38.5743 40.3939C39.4723 43.1578 36.3089 45.4562 33.9578 43.748L25.2634 37.4311C24.2119 36.6672 22.7881 36.6672 21.7366 37.4311L13.0422 43.748C10.6911 45.4562 7.52766 43.1578 8.42572 40.3939L11.7467 30.173C12.1483 28.9369 11.7083 27.5828 10.6569 26.8189L1.96247 20.502C-0.38867 18.7938 0.819657 15.075 3.72583 15.075H14.4727C15.7724 15.075 16.9242 14.2381 17.3259 13.002L20.6468 2.78115Z" fill="black"/>
</svg>
