<svg width="88" height="84" viewBox="0 0 88 84" fill="none" xmlns="http://www.w3.org/2000/svg">
<path d="M46.8823 3.21351L54.4908 26.6299C55.1602 28.6901 57.0799 30.0849 59.2461 30.0849H83.8676C86.7737 30.0849 87.9821 33.8037 85.6309 35.5119L65.7117 49.9841C63.9593 51.2573 63.226 53.5141 63.8954 55.5742L71.5038 78.9907C72.4019 81.7546 69.2384 84.053 66.8873 82.3448L46.9681 67.8726C45.2156 66.5994 42.8427 66.5994 41.0902 67.8726L21.171 82.3448C18.8199 84.053 15.6564 81.7546 16.5545 78.9907L24.163 55.5742C24.8323 53.5141 24.099 51.2573 22.3466 49.9841L2.42739 35.5119C0.0762408 33.8037 1.28457 30.0849 4.19073 30.0849H28.8122C30.9784 30.0849 32.8981 28.6901 33.5675 26.63L41.176 3.21351C42.074 0.449578 45.9843 0.449579 46.8823 3.21351Z" fill="#FF6B6B" stroke="black" stroke-width="2"/>
</svg>
